%TF.GenerationSoftware,KiCad,Pcbnew,(6.0.4)*%
%TF.CreationDate,2022-04-14T15:14:52-05:00*%
%TF.ProjectId,Pancake_Wireless_EMG,50616e63-616b-4655-9f57-6972656c6573,rev?*%
%TF.SameCoordinates,Original*%
%TF.FileFunction,Soldermask,Bot*%
%TF.FilePolarity,Negative*%
%FSLAX46Y46*%
G04 Gerber Fmt 4.6, Leading zero omitted, Abs format (unit mm)*
G04 Created by KiCad (PCBNEW (6.0.4)) date 2022-04-14 15:14:52*
%MOMM*%
%LPD*%
G01*
G04 APERTURE LIST*
%ADD10C,0.508000*%
%ADD11C,6.000000*%
%ADD12O,1.000000X1.000000*%
%ADD13R,1.000000X1.000000*%
G04 APERTURE END LIST*
D10*
%TO.C,U2*%
X156900000Y-87145000D03*
X156260000Y-87145000D03*
X155620000Y-87145000D03*
X154980000Y-87145000D03*
X154340000Y-87145000D03*
X153700000Y-87145000D03*
X153060000Y-87145000D03*
X152420000Y-87145000D03*
X152420000Y-88282289D03*
X153060000Y-88282289D03*
X153700000Y-88282289D03*
X154340000Y-88282289D03*
X154980000Y-88282289D03*
X155620000Y-88282289D03*
X156260000Y-88282289D03*
X156900000Y-88282289D03*
X157540000Y-88282289D03*
X158180000Y-88282289D03*
X158820000Y-88282289D03*
X159460000Y-88282289D03*
X160100000Y-88282289D03*
X160740000Y-88282289D03*
X161380000Y-88282289D03*
X162020000Y-88282289D03*
X162020000Y-87145000D03*
X161380000Y-87145000D03*
X160740000Y-87145000D03*
X160100000Y-87145000D03*
X159460000Y-87145000D03*
X158820000Y-87145000D03*
X158180000Y-87145000D03*
X157540000Y-87145000D03*
X151745153Y-87145000D03*
X151745153Y-88282289D03*
X162660000Y-88282289D03*
X162660000Y-87145000D03*
%TD*%
%TO.C,U1*%
X138700000Y-87145000D03*
X138060000Y-87145000D03*
X137420000Y-87145000D03*
X136780000Y-87145000D03*
X136140000Y-87145000D03*
X135500000Y-87145000D03*
X134860000Y-87145000D03*
X134220000Y-87145000D03*
X134220000Y-88282289D03*
X134860000Y-88282289D03*
X135500000Y-88282289D03*
X136140000Y-88282289D03*
X136780000Y-88282289D03*
X137420000Y-88282289D03*
X138060000Y-88282289D03*
X138700000Y-88282289D03*
X139340000Y-88282289D03*
X139980000Y-88282289D03*
X140620000Y-88282289D03*
X141260000Y-88282289D03*
X141900000Y-88282289D03*
X142540000Y-88282289D03*
X143180000Y-88282289D03*
X143820000Y-88282289D03*
X143820000Y-87145000D03*
X143180000Y-87145000D03*
X142540000Y-87145000D03*
X141900000Y-87145000D03*
X141260000Y-87145000D03*
X140620000Y-87145000D03*
X139980000Y-87145000D03*
X139340000Y-87145000D03*
X133545153Y-87145000D03*
X133545153Y-88282289D03*
X144460000Y-88282289D03*
X144460000Y-87145000D03*
%TD*%
D11*
%TO.C,H4*%
X170240000Y-81780000D03*
%TD*%
%TO.C,H3*%
X170240000Y-101930000D03*
%TD*%
%TO.C,H2*%
X124780000Y-101930000D03*
%TD*%
%TO.C,H1*%
X124780000Y-81780000D03*
%TD*%
D12*
%TO.C,J1*%
X163520000Y-94805000D03*
X163520000Y-96075000D03*
X162250000Y-94805000D03*
X162250000Y-96075000D03*
X160980000Y-94805000D03*
X160980000Y-96075000D03*
X159710000Y-94805000D03*
X159710000Y-96075000D03*
X158440000Y-94805000D03*
X158440000Y-96075000D03*
X157170000Y-94805000D03*
X157170000Y-96075000D03*
X155900000Y-94805000D03*
X155900000Y-96075000D03*
X154630000Y-94805000D03*
X154630000Y-96075000D03*
X153360000Y-94805000D03*
X153360000Y-96075000D03*
X152090000Y-94805000D03*
X152090000Y-96075000D03*
X150820000Y-94805000D03*
X150820000Y-96075000D03*
X149550000Y-94805000D03*
X149550000Y-96075000D03*
X148280000Y-94805000D03*
X148280000Y-96075000D03*
X147010000Y-94805000D03*
X147010000Y-96075000D03*
X145740000Y-94805000D03*
X145740000Y-96075000D03*
X144470000Y-94805000D03*
X144470000Y-96075000D03*
X143200000Y-94805000D03*
X143200000Y-96075000D03*
X141930000Y-94805000D03*
X141930000Y-96075000D03*
X140660000Y-94805000D03*
X140660000Y-96075000D03*
X139390000Y-94805000D03*
X139390000Y-96075000D03*
X138120000Y-94805000D03*
X138120000Y-96075000D03*
X136850000Y-94805000D03*
X136850000Y-96075000D03*
X135580000Y-94805000D03*
X135580000Y-96075000D03*
X134310000Y-94805000D03*
X134310000Y-96075000D03*
X133040000Y-94805000D03*
D13*
X133040000Y-96075000D03*
%TD*%
M02*
