M48
; DRILL file {KiCad (6.0.4)} date Thu Apr 14 15:20:22 2022
; FORMAT={-:-/ absolute / metric / decimal}
; #@! TF.CreationDate,2022-04-14T15:20:22-05:00
; #@! TF.GenerationSoftware,Kicad,Pcbnew,(6.0.4)
; #@! TF.FileFunction,Plated,1,2,PTH
FMAT,2
METRIC
; #@! TA.AperFunction,Plated,PTH,ComponentDrill
T1C0.254
; #@! TA.AperFunction,Plated,PTH,ViaDrill
T2C0.400
; #@! TA.AperFunction,Plated,PTH,ComponentDrill
T3C0.650
; #@! TA.AperFunction,Plated,PTH,ComponentDrill
T4C3.000
%
G90
G05
T1
X133.545Y-87.145
X133.545Y-88.282
X134.22Y-87.145
X134.22Y-88.282
X134.86Y-87.145
X134.86Y-88.282
X135.5Y-87.145
X135.5Y-88.282
X136.14Y-87.145
X136.14Y-88.282
X136.78Y-87.145
X136.78Y-88.282
X137.42Y-87.145
X137.42Y-88.282
X138.06Y-87.145
X138.06Y-88.282
X138.7Y-87.145
X138.7Y-88.282
X139.34Y-87.145
X139.34Y-88.282
X139.98Y-87.145
X139.98Y-88.282
X140.62Y-87.145
X140.62Y-88.282
X141.26Y-87.145
X141.26Y-88.282
X141.9Y-87.145
X141.9Y-88.282
X142.54Y-87.145
X142.54Y-88.282
X143.18Y-87.145
X143.18Y-88.282
X143.82Y-87.145
X143.82Y-88.282
X144.46Y-87.145
X144.46Y-88.282
X151.745Y-87.145
X151.745Y-88.282
X152.42Y-87.145
X152.42Y-88.282
X153.06Y-87.145
X153.06Y-88.282
X153.7Y-87.145
X153.7Y-88.282
X154.34Y-87.145
X154.34Y-88.282
X154.98Y-87.145
X154.98Y-88.282
X155.62Y-87.145
X155.62Y-88.282
X156.26Y-87.145
X156.26Y-88.282
X156.9Y-87.145
X156.9Y-88.282
X157.54Y-87.145
X157.54Y-88.282
X158.18Y-87.145
X158.18Y-88.282
X158.82Y-87.145
X158.82Y-88.282
X159.46Y-87.145
X159.46Y-88.282
X160.1Y-87.145
X160.1Y-88.282
X160.74Y-87.145
X160.74Y-88.282
X161.38Y-87.145
X161.38Y-88.282
X162.02Y-87.145
X162.02Y-88.282
X162.66Y-87.145
X162.66Y-88.282
T2
X137.412Y-82.988
X145.5Y-87.57
X146.5Y-87.57
X147.5Y-87.57
X156.312Y-84.112
X157.248Y-89.948
X158.8Y-84.9
X163.7Y-84.058
X166.0Y-85.4
T3
X133.04Y-94.805
X133.04Y-96.075
X134.31Y-94.805
X134.31Y-96.075
X135.58Y-94.805
X135.58Y-96.075
X136.85Y-94.805
X136.85Y-96.075
X138.12Y-94.805
X138.12Y-96.075
X139.39Y-94.805
X139.39Y-96.075
X140.66Y-94.805
X140.66Y-96.075
X141.93Y-94.805
X141.93Y-96.075
X143.2Y-94.805
X143.2Y-96.075
X144.47Y-94.805
X144.47Y-96.075
X145.74Y-94.805
X145.74Y-96.075
X147.01Y-94.805
X147.01Y-96.075
X148.28Y-94.805
X148.28Y-96.075
X149.55Y-94.805
X149.55Y-96.075
X150.82Y-94.805
X150.82Y-96.075
X152.09Y-94.805
X152.09Y-96.075
X153.36Y-94.805
X153.36Y-96.075
X154.63Y-94.805
X154.63Y-96.075
X155.9Y-94.805
X155.9Y-96.075
X157.17Y-94.805
X157.17Y-96.075
X158.44Y-94.805
X158.44Y-96.075
X159.71Y-94.805
X159.71Y-96.075
X160.98Y-94.805
X160.98Y-96.075
X162.25Y-94.805
X162.25Y-96.075
X163.52Y-94.805
X163.52Y-96.075
T4
X124.78Y-81.78
X124.78Y-101.93
X170.24Y-81.78
X170.24Y-101.93
T0
M30
