%TF.GenerationSoftware,KiCad,Pcbnew,(6.0.4)*%
%TF.CreationDate,2022-04-14T15:14:52-05:00*%
%TF.ProjectId,Pancake_Wireless_EMG,50616e63-616b-4655-9f57-6972656c6573,rev?*%
%TF.SameCoordinates,Original*%
%TF.FileFunction,Copper,L2,Bot*%
%TF.FilePolarity,Positive*%
%FSLAX46Y46*%
G04 Gerber Fmt 4.6, Leading zero omitted, Abs format (unit mm)*
G04 Created by KiCad (PCBNEW (6.0.4)) date 2022-04-14 15:14:52*
%MOMM*%
%LPD*%
G01*
G04 APERTURE LIST*
%TA.AperFunction,ComponentPad*%
%ADD10C,0.508000*%
%TD*%
%TA.AperFunction,ComponentPad*%
%ADD11C,6.000000*%
%TD*%
%TA.AperFunction,ComponentPad*%
%ADD12O,1.000000X1.000000*%
%TD*%
%TA.AperFunction,ComponentPad*%
%ADD13R,1.000000X1.000000*%
%TD*%
%TA.AperFunction,ViaPad*%
%ADD14C,0.800000*%
%TD*%
%TA.AperFunction,Conductor*%
%ADD15C,0.250000*%
%TD*%
G04 APERTURE END LIST*
D10*
%TO.P,U2,1,In0*%
%TO.N,/FCU1_1*%
X156900000Y-87145000D03*
%TO.P,U2,2,In1*%
%TO.N,/FDP1_1*%
X156260000Y-87145000D03*
%TO.P,U2,3,In2*%
%TO.N,/FDP2_1*%
X155620000Y-87145000D03*
%TO.P,U2,4,In3*%
%TO.N,/FDS1_1*%
X154980000Y-87145000D03*
%TO.P,U2,5,In4*%
%TO.N,/PT_1*%
X154340000Y-87145000D03*
%TO.P,U2,6,In5*%
%TO.N,/FPB_1*%
X153700000Y-87145000D03*
%TO.P,U2,7,In6*%
%TO.N,/Lum_1*%
X153060000Y-87145000D03*
%TO.P,U2,8,In7*%
%TO.N,/EPL_1*%
X152420000Y-87145000D03*
%TO.P,U2,9,In8*%
%TO.N,/FCR2_2*%
X152420000Y-88282289D03*
%TO.P,U2,10,In9*%
%TO.N,/FCU1_2*%
X153060000Y-88282289D03*
%TO.P,U2,11,In10*%
%TO.N,/FDP1_2*%
X153700000Y-88282289D03*
%TO.P,U2,12,In11*%
%TO.N,/FDP2_2*%
X154340000Y-88282289D03*
%TO.P,U2,13,In12*%
%TO.N,/FDS1_2*%
X154980000Y-88282289D03*
%TO.P,U2,14,In13*%
%TO.N,/PT_2*%
X155620000Y-88282289D03*
%TO.P,U2,15,In14*%
%TO.N,/FPB_2*%
X156260000Y-88282289D03*
%TO.P,U2,16,In15*%
%TO.N,/Lum_2*%
X156900000Y-88282289D03*
%TO.P,U2,17,In16*%
%TO.N,/EPL_2*%
X157540000Y-88282289D03*
%TO.P,U2,18,In17*%
%TO.N,/ECU_2*%
X158180000Y-88282289D03*
%TO.P,U2,19,In18*%
%TO.N,/ECR_1*%
X158820000Y-88282289D03*
%TO.P,U2,20,In19*%
%TO.N,/ECR_3*%
X159460000Y-88282289D03*
%TO.P,U2,21,In20*%
%TO.N,/EDC1_2*%
X160100000Y-88282289D03*
%TO.P,U2,22,In21*%
%TO.N,/EDC2_2*%
X160740000Y-88282289D03*
%TO.P,U2,23,In22*%
%TO.N,/Tri_2*%
X161380000Y-88282289D03*
%TO.P,U2,24,In23*%
%TO.N,/Bi_2*%
X162020000Y-88282289D03*
%TO.P,U2,25,In24*%
%TO.N,/Bi_1*%
X162020000Y-87145000D03*
%TO.P,U2,26,In25*%
%TO.N,/Tri_1*%
X161380000Y-87145000D03*
%TO.P,U2,27,In26*%
%TO.N,/EDC2_1*%
X160740000Y-87145000D03*
%TO.P,U2,28,In27*%
%TO.N,/EDC1_1*%
X160100000Y-87145000D03*
%TO.P,U2,29,In28*%
%TO.N,/ECR_2*%
X159460000Y-87145000D03*
%TO.P,U2,30,In29*%
%TO.N,/ECU_3*%
X158820000Y-87145000D03*
%TO.P,U2,31,In30*%
%TO.N,/ECU_1*%
X158180000Y-87145000D03*
%TO.P,U2,32,In31*%
%TO.N,/FCR2_1*%
X157540000Y-87145000D03*
%TO.P,U2,33,GND*%
%TO.N,/Gnd*%
X151745153Y-87145000D03*
%TO.P,U2,34,REF*%
X151745153Y-88282289D03*
%TO.P,U2,35,REF*%
X162660000Y-88282289D03*
%TO.P,U2,36,GND*%
X162660000Y-87145000D03*
%TD*%
%TO.P,U1,1,In0*%
%TO.N,/FDS2_1*%
X138700000Y-87145000D03*
%TO.P,U1,2,In1*%
%TO.N,/FDS1_1*%
X138060000Y-87145000D03*
%TO.P,U1,3,In2*%
%TO.N,/FDP2_1*%
X137420000Y-87145000D03*
%TO.P,U1,4,In3*%
%TO.N,/FDP1_1*%
X136780000Y-87145000D03*
%TO.P,U1,5,In4*%
%TO.N,/FCU2_1*%
X136140000Y-87145000D03*
%TO.P,U1,6,In5*%
%TO.N,/FCU1_1*%
X135500000Y-87145000D03*
%TO.P,U1,7,In6*%
%TO.N,/FCR2_1*%
X134860000Y-87145000D03*
%TO.P,U1,8,In7*%
%TO.N,/FCR1_1*%
X134220000Y-87145000D03*
%TO.P,U1,9,In8*%
%TO.N,/FCR1_2*%
X134220000Y-88282289D03*
%TO.P,U1,10,In9*%
%TO.N,/FCR2_2*%
X134860000Y-88282289D03*
%TO.P,U1,11,In10*%
%TO.N,/FCU1_2*%
X135500000Y-88282289D03*
%TO.P,U1,12,In11*%
%TO.N,/FCU2_2*%
X136140000Y-88282289D03*
%TO.P,U1,13,In12*%
%TO.N,/FDP1_2*%
X136780000Y-88282289D03*
%TO.P,U1,14,In13*%
%TO.N,/FDP2_2*%
X137420000Y-88282289D03*
%TO.P,U1,15,In14*%
%TO.N,/FDS1_2*%
X138060000Y-88282289D03*
%TO.P,U1,16,In15*%
%TO.N,/FDS2_2*%
X138700000Y-88282289D03*
%TO.P,U1,17,In16*%
%TO.N,/PT_2*%
X139340000Y-88282289D03*
%TO.P,U1,18,In17*%
%TO.N,/APB_2*%
X139980000Y-88282289D03*
%TO.P,U1,19,In18*%
%TO.N,/FPB_2*%
X140620000Y-88282289D03*
%TO.P,U1,20,In19*%
%TO.N,/Lum_2*%
X141260000Y-88282289D03*
%TO.P,U1,21,In20*%
%TO.N,/EPL_2*%
X141900000Y-88282289D03*
%TO.P,U1,22,In21*%
%TO.N,/1DI_2*%
X142540000Y-88282289D03*
%TO.P,U1,23,In22*%
%TO.N,/Sup_2*%
X143180000Y-88282289D03*
%TO.P,U1,24,In23*%
%TO.N,/3DI_2*%
X143820000Y-88282289D03*
%TO.P,U1,25,In24*%
%TO.N,/3DI_1*%
X143820000Y-87145000D03*
%TO.P,U1,26,In25*%
%TO.N,/Sup_1*%
X143180000Y-87145000D03*
%TO.P,U1,27,In26*%
%TO.N,/1DI_1*%
X142540000Y-87145000D03*
%TO.P,U1,28,In27*%
%TO.N,/EPL_1*%
X141900000Y-87145000D03*
%TO.P,U1,29,In28*%
%TO.N,/Lum_1*%
X141260000Y-87145000D03*
%TO.P,U1,30,In29*%
%TO.N,/FPB_1*%
X140620000Y-87145000D03*
%TO.P,U1,31,In30*%
%TO.N,/APB_1*%
X139980000Y-87145000D03*
%TO.P,U1,32,In31*%
%TO.N,/PT_1*%
X139340000Y-87145000D03*
%TO.P,U1,33,GND*%
%TO.N,/Gnd*%
X133545153Y-87145000D03*
%TO.P,U1,34,REF*%
X133545153Y-88282289D03*
%TO.P,U1,35,REF*%
X144460000Y-88282289D03*
%TO.P,U1,36,GND*%
X144460000Y-87145000D03*
%TD*%
D11*
%TO.P,H4,1*%
%TO.N,N/C*%
X170240000Y-81780000D03*
%TD*%
%TO.P,H3,1*%
%TO.N,N/C*%
X170240000Y-101930000D03*
%TD*%
%TO.P,H2,1*%
%TO.N,N/C*%
X124780000Y-101930000D03*
%TD*%
%TO.P,H1,1*%
%TO.N,N/C*%
X124780000Y-81780000D03*
%TD*%
D12*
%TO.P,J1,50,Pin_50*%
%TO.N,/Gnd*%
X163520000Y-94805000D03*
%TO.P,J1,49,Pin_49*%
X163520000Y-96075000D03*
%TO.P,J1,48,Pin_48*%
%TO.N,/Bi_2*%
X162250000Y-94805000D03*
%TO.P,J1,47,Pin_47*%
%TO.N,/Bi_1*%
X162250000Y-96075000D03*
%TO.P,J1,46,Pin_46*%
%TO.N,/Tri_2*%
X160980000Y-94805000D03*
%TO.P,J1,45,Pin_45*%
%TO.N,/Tri_1*%
X160980000Y-96075000D03*
%TO.P,J1,44,Pin_44*%
%TO.N,/Gnd*%
X159710000Y-94805000D03*
%TO.P,J1,43,Pin_43*%
X159710000Y-96075000D03*
%TO.P,J1,42,Pin_42*%
%TO.N,/EDC2_2*%
X158440000Y-94805000D03*
%TO.P,J1,41,Pin_41*%
%TO.N,/EDC2_1*%
X158440000Y-96075000D03*
%TO.P,J1,40,Pin_40*%
%TO.N,/EDC1_2*%
X157170000Y-94805000D03*
%TO.P,J1,39,Pin_39*%
%TO.N,/EDC1_1*%
X157170000Y-96075000D03*
%TO.P,J1,38,Pin_38*%
%TO.N,/ECR_3*%
X155900000Y-94805000D03*
%TO.P,J1,37,Pin_37*%
%TO.N,/ECR_2*%
X155900000Y-96075000D03*
%TO.P,J1,36,Pin_36*%
%TO.N,/ECR_1*%
X154630000Y-94805000D03*
%TO.P,J1,35,Pin_35*%
%TO.N,/ECU_3*%
X154630000Y-96075000D03*
%TO.P,J1,34,Pin_34*%
%TO.N,/ECU_2*%
X153360000Y-94805000D03*
%TO.P,J1,33,Pin_33*%
%TO.N,/ECU_1*%
X153360000Y-96075000D03*
%TO.P,J1,32,Pin_32*%
%TO.N,/3DI_2*%
X152090000Y-94805000D03*
%TO.P,J1,31,Pin_31*%
%TO.N,/3DI_1*%
X152090000Y-96075000D03*
%TO.P,J1,30,Pin_30*%
%TO.N,/Sup_2*%
X150820000Y-94805000D03*
%TO.P,J1,29,Pin_29*%
%TO.N,/Sup_1*%
X150820000Y-96075000D03*
%TO.P,J1,28,Pin_28*%
%TO.N,/1DI_2*%
X149550000Y-94805000D03*
%TO.P,J1,27,Pin_27*%
%TO.N,/1DI_1*%
X149550000Y-96075000D03*
%TO.P,J1,26,Pin_26*%
%TO.N,/EPL_2*%
X148280000Y-94805000D03*
%TO.P,J1,25,Pin_25*%
%TO.N,/EPL_1*%
X148280000Y-96075000D03*
%TO.P,J1,24,Pin_24*%
%TO.N,/Lum_2*%
X147010000Y-94805000D03*
%TO.P,J1,23,Pin_23*%
%TO.N,/Lum_1*%
X147010000Y-96075000D03*
%TO.P,J1,22,Pin_22*%
%TO.N,/FPB_2*%
X145740000Y-94805000D03*
%TO.P,J1,21,Pin_21*%
%TO.N,/FPB_1*%
X145740000Y-96075000D03*
%TO.P,J1,20,Pin_20*%
%TO.N,/APB_2*%
X144470000Y-94805000D03*
%TO.P,J1,19,Pin_19*%
%TO.N,/APB_1*%
X144470000Y-96075000D03*
%TO.P,J1,18,Pin_18*%
%TO.N,/PT_2*%
X143200000Y-94805000D03*
%TO.P,J1,17,Pin_17*%
%TO.N,/PT_1*%
X143200000Y-96075000D03*
%TO.P,J1,16,Pin_16*%
%TO.N,/FDS2_2*%
X141930000Y-94805000D03*
%TO.P,J1,15,Pin_15*%
%TO.N,/FDS2_1*%
X141930000Y-96075000D03*
%TO.P,J1,14,Pin_14*%
%TO.N,/FDS1_2*%
X140660000Y-94805000D03*
%TO.P,J1,13,Pin_13*%
%TO.N,/FDS1_1*%
X140660000Y-96075000D03*
%TO.P,J1,12,Pin_12*%
%TO.N,/FDP2_2*%
X139390000Y-94805000D03*
%TO.P,J1,11,Pin_11*%
%TO.N,/FDP2_1*%
X139390000Y-96075000D03*
%TO.P,J1,10,Pin_10*%
%TO.N,/FDP1_2*%
X138120000Y-94805000D03*
%TO.P,J1,9,Pin_9*%
%TO.N,/FDP1_1*%
X138120000Y-96075000D03*
%TO.P,J1,8,Pin_8*%
%TO.N,/FCU2_2*%
X136850000Y-94805000D03*
%TO.P,J1,7,Pin_7*%
%TO.N,/FCU2_1*%
X136850000Y-96075000D03*
%TO.P,J1,6,Pin_6*%
%TO.N,/FCU1_2*%
X135580000Y-94805000D03*
%TO.P,J1,5,Pin_5*%
%TO.N,/FCU1_1*%
X135580000Y-96075000D03*
%TO.P,J1,4,Pin_4*%
%TO.N,/FCR2_2*%
X134310000Y-94805000D03*
%TO.P,J1,3,Pin_3*%
%TO.N,/FCR2_1*%
X134310000Y-96075000D03*
%TO.P,J1,2,Pin_2*%
%TO.N,/FCR1_2*%
X133040000Y-94805000D03*
D13*
%TO.P,J1,1,Pin_1*%
%TO.N,/FCR1_1*%
X133040000Y-96075000D03*
%TD*%
D14*
%TO.N,/Gnd*%
X157248012Y-89948012D03*
X137412299Y-82987701D03*
%TO.N,/Lum_1*%
X156312299Y-84112299D03*
X163700000Y-84057909D03*
%TO.N,/FPB_1*%
X166000000Y-85400000D03*
X158800000Y-84900000D03*
%TO.N,/1DI_1*%
X147500000Y-87570499D03*
%TO.N,/Sup_1*%
X146499503Y-87570499D03*
%TO.N,/3DI_1*%
X145500000Y-87570499D03*
%TD*%
D15*
%TO.N,/FDP2_1*%
X139998080Y-84301920D02*
X137400000Y-86900000D01*
X155620000Y-86801447D02*
X153120473Y-84301920D01*
X155620000Y-87155000D02*
X155620000Y-86801447D01*
X153120473Y-84301920D02*
X139998080Y-84301920D01*
%TO.N,/EPL_1*%
X141860000Y-86982518D02*
X141860000Y-87155000D01*
X142265991Y-86576527D02*
X141860000Y-86982518D01*
X151983124Y-86576527D02*
X142265991Y-86576527D01*
X152420000Y-87013403D02*
X151983124Y-86576527D01*
%TO.N,/FCR2_2*%
X146660789Y-90348560D02*
X146660789Y-90339211D01*
X134310000Y-94805000D02*
X138766440Y-90348560D01*
X138766440Y-90348560D02*
X146660789Y-90348560D01*
X146660789Y-90339211D02*
X148100000Y-88900000D01*
X148100000Y-88900000D02*
X152000000Y-88900000D01*
X152000000Y-88900000D02*
X152420000Y-88480000D01*
%TO.N,/Gnd*%
X159710000Y-92410000D02*
X159710000Y-94805000D01*
X157248012Y-89948012D02*
X159710000Y-92410000D01*
%TO.N,/EPL_2*%
X157500000Y-88671425D02*
X157500000Y-88295000D01*
X153608366Y-92563059D02*
X157500000Y-88671425D01*
X150521941Y-92563059D02*
X153608366Y-92563059D01*
X148280000Y-94805000D02*
X150521941Y-92563059D01*
%TO.N,/Lum_2*%
X156900000Y-88635707D02*
X156900000Y-88295000D01*
X153422168Y-92113539D02*
X156900000Y-88635707D01*
X149701461Y-92113539D02*
X153422168Y-92113539D01*
X147010000Y-94805000D02*
X149701461Y-92113539D01*
%TO.N,/FPB_2*%
X156260000Y-88639989D02*
X156260000Y-88295000D01*
X153235970Y-91664019D02*
X156260000Y-88639989D01*
X147982570Y-93081449D02*
X149400000Y-91664019D01*
X147463551Y-93081449D02*
X147982570Y-93081449D01*
X145740000Y-94805000D02*
X147463551Y-93081449D01*
X149400000Y-91664019D02*
X153235970Y-91664019D01*
%TO.N,/PT_2*%
X155620000Y-88644271D02*
X155620000Y-88295000D01*
X153049772Y-91214499D02*
X155620000Y-88644271D01*
X145373071Y-92631929D02*
X147668767Y-92631929D01*
X143200000Y-94805000D02*
X145373071Y-92631929D01*
X147668767Y-92631929D02*
X149086197Y-91214499D01*
X149086197Y-91214499D02*
X153049772Y-91214499D01*
%TO.N,/FDS1_2*%
X148900000Y-90764979D02*
X147482570Y-92182409D01*
X147482570Y-92182409D02*
X147282409Y-92182409D01*
X143282591Y-92182409D02*
X147282409Y-92182409D01*
X154980000Y-88648553D02*
X152863574Y-90764979D01*
X152863574Y-90764979D02*
X148900000Y-90764979D01*
X154980000Y-88295000D02*
X154980000Y-88648553D01*
%TO.N,/FDP2_2*%
X142462111Y-91732889D02*
X139390000Y-94805000D01*
X147267111Y-91732889D02*
X142462111Y-91732889D01*
X152673094Y-90315459D02*
X154340000Y-88648553D01*
X148684541Y-90315459D02*
X152673094Y-90315459D01*
X147267111Y-91732889D02*
X148684541Y-90315459D01*
X154340000Y-88648553D02*
X154340000Y-88295000D01*
%TO.N,/FDP1_2*%
X148465939Y-89865939D02*
X152305497Y-89865939D01*
X152305497Y-89865939D02*
X153700000Y-88471436D01*
X147047600Y-91247600D02*
X147084278Y-91247600D01*
X147047600Y-91247600D02*
X141677400Y-91247600D01*
X153700000Y-88471436D02*
X153700000Y-88295000D01*
X147084278Y-91247600D02*
X148465939Y-89865939D01*
%TO.N,/FCU1_2*%
X152135718Y-89400000D02*
X153060000Y-88475718D01*
X148296160Y-89400000D02*
X152135718Y-89400000D01*
X146898080Y-90798080D02*
X148296160Y-89400000D01*
X139586920Y-90798080D02*
X146898080Y-90798080D01*
%TO.N,/FDS1_2*%
X140660000Y-94805000D02*
X143282591Y-92182409D01*
%TO.N,/FDP1_2*%
X141677400Y-91247600D02*
X138120000Y-94805000D01*
%TO.N,/Gnd*%
X133545153Y-86854847D02*
X137412299Y-82987701D01*
X133545153Y-87151038D02*
X133545153Y-86854847D01*
X133545153Y-88282289D02*
X133545153Y-87151038D01*
%TO.N,/FCU1_2*%
X135580000Y-94805000D02*
X139586920Y-90798080D01*
%TO.N,/Lum_1*%
X163645610Y-84112299D02*
X163700000Y-84057909D01*
X156312299Y-84112299D02*
X163645610Y-84112299D01*
%TO.N,/FPB_1*%
X165382409Y-84782409D02*
X166000000Y-85400000D01*
X158917591Y-84782409D02*
X165382409Y-84782409D01*
X158800000Y-84900000D02*
X158917591Y-84782409D01*
%TO.N,/1DI_1*%
X145900000Y-89800000D02*
X147500000Y-88200000D01*
X145800960Y-89899040D02*
X145900000Y-89800000D01*
X143499040Y-89899040D02*
X145800960Y-89899040D01*
X147500000Y-88200000D02*
X147500000Y-87570499D01*
X132836678Y-89899040D02*
X143499040Y-89899040D01*
X132767859Y-89967859D02*
X132836678Y-89899040D01*
X132200000Y-90535718D02*
X132767859Y-89967859D01*
X132200000Y-94200000D02*
X132200000Y-90535718D01*
%TO.N,/Sup_1*%
X146499503Y-87936215D02*
X146499503Y-87570499D01*
X144986198Y-89449520D02*
X146499503Y-87936215D01*
X131750480Y-90349520D02*
X132650480Y-89449520D01*
X132650480Y-89449520D02*
X144986198Y-89449520D01*
%TO.N,/3DI_1*%
X145500000Y-88300000D02*
X145500000Y-87570499D01*
X144800000Y-89000000D02*
X145500000Y-88300000D01*
X132464283Y-89000000D02*
X144800000Y-89000000D01*
X131300960Y-90163323D02*
X132464283Y-89000000D01*
X131300960Y-97136677D02*
X131300960Y-95800000D01*
X132700000Y-97798551D02*
X131962833Y-97798551D01*
X131962833Y-97798551D02*
X131300960Y-97136677D01*
X150262485Y-97798551D02*
X132700000Y-97798551D01*
X151986036Y-96075000D02*
X150262485Y-97798551D01*
X131300960Y-95800000D02*
X131300960Y-90163323D01*
X152090000Y-96075000D02*
X151986036Y-96075000D01*
%TO.N,/Sup_1*%
X131750480Y-93200000D02*
X131750480Y-90349520D01*
X131750480Y-96950480D02*
X131750480Y-93200000D01*
X132149031Y-97349031D02*
X131750480Y-96950480D01*
X149545969Y-97349031D02*
X132149031Y-97349031D01*
X150820000Y-96075000D02*
X149545969Y-97349031D01*
%TO.N,/1DI_1*%
X132200000Y-96700000D02*
X132200000Y-94200000D01*
X132399511Y-96899511D02*
X132300000Y-96800000D01*
X148725489Y-96899511D02*
X132399511Y-96899511D01*
X149550000Y-96075000D02*
X148725489Y-96899511D01*
X132300000Y-96800000D02*
X132200000Y-96700000D01*
%TO.N,/ECU_1*%
X158140000Y-86760000D02*
X158140000Y-87155000D01*
X159668071Y-85231929D02*
X158140000Y-86760000D01*
X163639080Y-85231929D02*
X159668071Y-85231929D01*
X165748560Y-87341409D02*
X163639080Y-85231929D01*
X165748560Y-97258592D02*
X165748560Y-87341409D01*
X164607152Y-98400000D02*
X165748560Y-97258592D01*
X155685000Y-98400000D02*
X164607152Y-98400000D01*
X153360000Y-96075000D02*
X155685000Y-98400000D01*
%TO.N,/ECU_3*%
X158780000Y-86805730D02*
X158780000Y-87155000D01*
X159904281Y-85681449D02*
X158780000Y-86805730D01*
X163452883Y-85681449D02*
X159904281Y-85681449D01*
X165299040Y-87527606D02*
X163452883Y-85681449D01*
X165299040Y-97072395D02*
X165299040Y-87527606D01*
X164472394Y-97899040D02*
X165299040Y-97072395D01*
X156454040Y-97899040D02*
X164472394Y-97899040D01*
X154630000Y-96075000D02*
X156454040Y-97899040D01*
%TO.N,/ECR_2*%
X157274520Y-97449520D02*
X155900000Y-96075000D01*
X164286197Y-97449520D02*
X157274520Y-97449520D01*
X164849520Y-96886198D02*
X164286197Y-97449520D01*
X164849520Y-87713803D02*
X164849520Y-96886198D01*
X163266686Y-86130969D02*
X164849520Y-87713803D01*
X160090478Y-86130969D02*
X163266686Y-86130969D01*
X159420000Y-86801447D02*
X160090478Y-86130969D01*
X159420000Y-87155000D02*
X159420000Y-86801447D01*
%TO.N,/EDC1_1*%
X160060000Y-86982518D02*
X160060000Y-87155000D01*
X163080489Y-86580489D02*
X160462029Y-86580489D01*
X164400000Y-96700000D02*
X164400000Y-87900000D01*
X164400000Y-87900000D02*
X163080489Y-86580489D01*
X164100000Y-97000000D02*
X164400000Y-96700000D01*
X158095000Y-97000000D02*
X164100000Y-97000000D01*
X160462029Y-86580489D02*
X160060000Y-86982518D01*
X157170000Y-96075000D02*
X158095000Y-97000000D01*
%TO.N,/Gnd*%
X160610000Y-93905000D02*
X162620000Y-93905000D01*
X159710000Y-94805000D02*
X160610000Y-93905000D01*
X162620000Y-88294999D02*
X162620000Y-93905000D01*
X162620000Y-93905000D02*
X162800000Y-94085000D01*
X162800000Y-94085000D02*
X162615000Y-93900000D01*
X163520000Y-94805000D02*
X162800000Y-94085000D01*
X162620000Y-87163748D02*
X162620000Y-88294999D01*
X163520000Y-94805000D02*
X163520000Y-96075000D01*
X159710000Y-94805000D02*
X159710000Y-96075000D01*
%TO.N,/FCR2_1*%
X138510922Y-82953360D02*
X134971259Y-86493023D01*
X153683347Y-82953360D02*
X138510922Y-82953360D01*
X157500000Y-86770013D02*
X153683347Y-82953360D01*
X134971259Y-86493023D02*
X134971259Y-86871259D01*
X157500000Y-87155000D02*
X157500000Y-86770013D01*
%TO.N,/FCU1_1*%
X153497150Y-83402880D02*
X138697120Y-83402880D01*
X156900000Y-86805730D02*
X153497150Y-83402880D01*
X156900000Y-87155000D02*
X156900000Y-86805730D01*
X138697120Y-83402880D02*
X135500000Y-86600000D01*
X135500000Y-86600000D02*
X135500000Y-87155000D01*
%TO.N,/FDP1_1*%
X136780000Y-86520000D02*
X136780000Y-87155000D01*
X153310953Y-83852400D02*
X139447600Y-83852400D01*
X156260000Y-86801447D02*
X153310953Y-83852400D01*
X139447600Y-83852400D02*
X136780000Y-86520000D01*
X156260000Y-87155000D02*
X156260000Y-86801447D01*
%TO.N,/PT_1*%
X154340000Y-86801447D02*
X154340000Y-87155000D01*
X152739513Y-85200960D02*
X154340000Y-86801447D01*
X139300000Y-86801447D02*
X140900487Y-85200960D01*
X139300000Y-87155000D02*
X139300000Y-86801447D01*
X140900487Y-85200960D02*
X152739513Y-85200960D01*
%TO.N,/FDS1_1*%
X140291078Y-84751440D02*
X152929993Y-84751440D01*
X154980000Y-86801447D02*
X154980000Y-87155000D01*
X138060000Y-86982518D02*
X140291078Y-84751440D01*
X138060000Y-87155000D02*
X138060000Y-86982518D01*
X152929993Y-84751440D02*
X154980000Y-86801447D01*
%TO.N,/FPB_1*%
X140580000Y-86720000D02*
X140580000Y-87155000D01*
X152544750Y-85650480D02*
X141649520Y-85650480D01*
X153700000Y-86805730D02*
X152544750Y-85650480D01*
X141649520Y-85650480D02*
X140580000Y-86720000D01*
X153700000Y-87155000D02*
X153700000Y-86805730D01*
%TO.N,/Lum_1*%
X141220000Y-86780000D02*
X141900000Y-86100000D01*
X141220000Y-87155000D02*
X141220000Y-86780000D01*
X153060000Y-86801447D02*
X152358553Y-86100000D01*
X152358553Y-86100000D02*
X141900000Y-86100000D01*
X153060000Y-87155000D02*
X153060000Y-86801447D01*
%TD*%
M02*
